# xmcd
#
# Track frame offsets: 
#        150
#        22793
#        41609
#        58989
#        62440
#        81072
#        100849
#        119352
#        133291
#        136874
#        150164
#
# Disc length: 2264 seconds
#
# Revision: 0
# Processed by: cddbd v1.5.2PL0 Copyright (c) Steve Scherf et al.
# Submitted via: ExactAudioCopy v0.95b4
#
DISCID=8608d60b
DTITLE=The Black Sorrows - A Place In The World
DYEAR=2002
DGENRE=Pop-Folk
TTITLE0=Have It Your Own Sweet Way
TTITLE1=Country Girls
TTITLE2=Sons Of The Sea
TTITLE3=All You Need
TTITLE4=No Man's Land
TTITLE5=A Place In The World
TTITLE6=Gypsy Heart
TTITLE7=The Final Touch
TTITLE8=Hoe Down Blues
TTITLE9=Let The Four Winds Blow
TTITLE10=Country Girls (Live)
EXTD=
EXTT0=
EXTT1=
EXTT2=
EXTT3=
EXTT4=
EXTT5=
EXTT6=
EXTT7=
EXTT8=
EXTT9=
EXTT10=
PLAYORDER=
